Daubenton1.ufo
<glyph name="asterisk" format="1">
  <advance width="178"/>
  <unicode hex="002A"/>
  <outline>
    <contour>
      <point x="134" y="815" type="line"/>
      <point x="134" y="815" type="line"/>
      <point x="48" y="815" type="line"/>
      <point x="48" y="815" type="line"/>
      <point x="48" y="729" type="line"/>
      <point x="48" y="729" type="line"/>
      <point x="134" y="729" type="line"/>
      <point x="134" y="729" type="line"/>
    </contour>
    <contour>
      <point x="91" y="772" type="line"/>
      <point x="91" y="772" type="line"/>
      <point x="91" y="772" type="line"/>
      <point x="91" y="772" type="line"/>
    </contour>
    <contour>
      <point x="152" y="771" type="line"/>
      <point x="91" y="832" type="line"/>
      <point x="91" y="832" type="line"/>
      <point x="30" y="771" type="line"/>
      <point x="30" y="771" type="line"/>
      <point x="91" y="710" type="line"/>
      <point x="91" y="710" type="line"/>
    </contour>
    <contour>
      <point x="91" y="771" type="move"/>
    </contour>
  </outline>
</glyph>
<glyph name="zero" format="1">
  <advance width="897"/>
  <unicode hex="0030"/>
  <outline>
    <contour>
      <point x="445" y="718" type="curve" smooth="yes"/>
      <point x="227" y="718"/>
      <point x="51" y="555"/>
      <point x="51" y="355" type="curve" smooth="yes"/>
      <point x="51" y="154"/>
      <point x="227" y="-8"/>
      <point x="445" y="-8" type="curve" smooth="yes"/>
      <point x="663" y="-8"/>
      <point x="839" y="154"/>
      <point x="839" y="355" type="curve" smooth="yes"/>
      <point x="839" y="555"/>
      <point x="663" y="718"/>
    </contour>
    <contour>
      <point x="445" y="55" type="curve" smooth="yes"/>
      <point x="267" y="55"/>
      <point x="123" y="203"/>
      <point x="123" y="360" type="curve" smooth="yes"/>
      <point x="123" y="517"/>
      <point x="267" y="665"/>
      <point x="445" y="665" type="curve" smooth="yes"/>
      <point x="623" y="665"/>
      <point x="767" y="517"/>
      <point x="767" y="360" type="curve" smooth="yes"/>
      <point x="767" y="203"/>
      <point x="623" y="55"/>
    </contour>
  </outline>
</glyph>
<glyph name="one" format="1">
  <advance width="350"/>
  <unicode hex="0031"/>
  <outline>
    <contour>
      <point x="249" y="689" type="line"/>
      <point x="270" y="710" type="line"/>
      <point x="181" y="710" type="line"/>
      <point x="25" y="506" type="line"/>
      <point x="120" y="506" type="line"/>
      <point x="173" y="589" type="line"/>
      <point x="173" y="59" type="line"/>
      <point x="112" y="-2" type="line"/>
      <point x="173" y="-2" type="line"/>
      <point x="249" y="-2" type="line"/>
      <point x="310" y="-2" type="line"/>
      <point x="249" y="59" type="line"/>
    </contour>
  </outline>
</glyph>
<glyph name="five" format="1">
  <advance width="622"/>
  <unicode hex="0035"/>
  <outline>
    <contour>
      <point x="129" y="710" type="line"/>
      <point x="129" y="535" type="line"/>
      <point x="130" y="478"/>
      <point x="127" y="361"/>
      <point x="129" y="361" type="curve" smooth="yes"/>
      <point x="223" y="360"/>
      <point x="486" y="381"/>
      <point x="486" y="212" type="curve" smooth="yes"/>
      <point x="486" y="130"/>
      <point x="407" y="64"/>
      <point x="309" y="64" type="curve" smooth="yes"/>
      <point x="211" y="64"/>
      <point x="131" y="130"/>
      <point x="131" y="212" type="curve" smooth="yes"/>
      <point x="131" y="216"/>
      <point x="132" y="220"/>
      <point x="132" y="226" type="curve"/>
      <point x="96" y="145" type="line"/>
      <point x="45" y="32" type="line"/>
      <point x="128" y="89" type="line"/>
      <point x="128" y="89" type="line"/>
      <point x="171" y="34"/>
      <point x="242" y="-1"/>
      <point x="323" y="-1" type="curve" smooth="yes"/>
      <point x="455" y="-1"/>
      <point x="563" y="95"/>
      <point x="563" y="214" type="curve" smooth="yes"/>
      <point x="563" y="290"/>
      <point x="518" y="357"/>
      <point x="451" y="395" type="curve" smooth="yes"/>
      <point x="372" y="440"/>
      <point x="206" y="431"/>
      <point x="206" y="431" type="curve" smooth="yes"/>
      <point x="206" y="449"/>
      <point x="205" y="513"/>
      <point x="205" y="545" type="curve"/>
      <point x="205" y="644" type="line"/>
      <point x="466" y="644" type="line"/>
      <point x="523" y="587" type="line"/>
      <point x="512" y="710" type="line"/>
    </contour>
  </outline>
</glyph>
<glyph name="seven" format="1">
  <advance width="606"/>
  <unicode hex="0037"/>
  <outline>
    <contour>
      <point x="585" y="710" type="line"/>
      <point x="85" y="710" type="line"/>
      <point x="65" y="587" type="line"/>
      <point x="122" y="644" type="line"/>
      <point x="469" y="644" type="line"/>
      <point x="99" y="52" type="line"/>
      <point x="45" y="-2" type="line"/>
      <point x="202" y="-2" type="line"/>
      <point x="164" y="36" type="line"/>
    </contour>
  </outline>
</glyph>
<glyph name="question" format="1">
  <advance width="406"/>
  <unicode hex="003F"/>
  <outline>
    <contour>
      <point x="167" y="712" type="curve" smooth="yes"/>
      <point x="123" y="712"/>
      <point x="83" y="700"/>
      <point x="49" y="678" type="curve"/>
      <point x="27" y="692" type="line"/>
      <point x="34" y="668" type="line"/>
      <point x="61" y="580" type="line"/>
      <point x="82" y="625"/>
      <point x="131" y="650"/>
      <point x="181" y="650" type="curve" smooth="yes"/>
      <point x="270" y="650"/>
      <point x="318" y="546"/>
      <point x="301" y="496" type="curve" smooth="yes"/>
      <point x="282" y="441"/>
      <point x="128" y="308"/>
      <point x="128" y="262" type="curve" smooth="yes"/>
      <point x="128" y="216"/>
      <point x="144" y="182"/>
      <point x="165" y="146" type="curve"/>
      <point x="241" y="147" type="line"/>
      <point x="211" y="180"/>
      <point x="193" y="206"/>
      <point x="193" y="258" type="curve" smooth="yes"/>
      <point x="193" y="304"/>
      <point x="339" y="433"/>
      <point x="354" y="467" type="curve" smooth="yes"/>
      <point x="402" y="579"/>
      <point x="322" y="712"/>
    </contour>
    <contour>
      <point x="139" y="29" type="line"/>
      <point x="200" y="-32" type="line"/>
      <point x="261" y="29" type="line"/>
      <point x="200" y="90" type="line"/>
    </contour>
  </outline>
</glyph>
<glyph name="B" format="1">
  <advance width="656"/>
  <unicode hex="0042"/>
  <outline>
    <contour>
      <point x="173" y="671" type="line"/>
      <point x="214" y="712" type="line"/>
      <point x="36" y="712" type="line"/>
      <point x="98" y="651" type="line"/>
      <point x="98" y="61" type="line"/>
      <point x="36" y="0" type="line"/>
      <point x="214" y="0" type="line"/>
      <point x="173" y="41" type="line"/>
    </contour>
    <contour>
      <point x="405" y="423" type="curve"/>
      <point x="457" y="450"/>
      <point x="492" y="500"/>
      <point x="492" y="557" type="curve" smooth="yes"/>
      <point x="492" y="643"/>
      <point x="414" y="712"/>
      <point x="318" y="712" type="curve" smooth="yes"/>
      <point x="262" y="712"/>
      <point x="212" y="688"/>
      <point x="180" y="651" type="curve"/>
      <point x="206" y="667"/>
      <point x="238" y="677"/>
      <point x="272" y="677" type="curve" smooth="yes"/>
      <point x="357" y="677"/>
      <point x="426" y="618"/>
      <point x="426" y="546" type="curve" smooth="yes"/>
      <point x="426" y="476"/>
      <point x="363" y="419"/>
      <point x="282" y="415" type="curve"/>
      <point x="282" y="406" type="line"/>
      <point x="282" y="402" type="line"/>
      <point x="282" y="394" type="line"/>
      <point x="301" y="399"/>
      <point x="321" y="402"/>
      <point x="341" y="402" type="curve" smooth="yes"/>
      <point x="457" y="402"/>
      <point x="550" y="321"/>
      <point x="550" y="222" type="curve" smooth="yes"/>
      <point x="550" y="123"/>
      <point x="457" y="43"/>
      <point x="341" y="43" type="curve" smooth="yes"/>
      <point x="284" y="43"/>
      <point x="233" y="63"/>
      <point x="195" y="94" type="curve"/>
      <point x="239" y="42"/>
      <point x="310" y="8"/>
      <point x="391" y="8" type="curve" smooth="yes"/>
      <point x="525" y="8"/>
      <point x="633" y="101"/>
      <point x="633" y="216" type="curve" smooth="yes"/>
      <point x="633" y="327"/>
      <point x="532" y="417"/>
    </contour>
  </outline>
</glyph>
<glyph name="C" format="1">
  <advance width="757"/>
  <unicode hex="0043"/>
  <outline>
    <contour>
      <point x="100" y="356" type="curve" smooth="yes"/>
      <point x="100.0" y="521.0"/>
      <point x="241.99999999999997" y="674.0"/>
      <point x="415" y="674" type="curve" smooth="yes"/>
      <point x="549.0" y="674.0"/>
      <point x="661.978337465521" y="578.1475763479864"/>
      <point x="712" y="473" type="curve"/>
      <point x="702" y="663" type="line"/>
      <point x="638" y="663" type="line"/>
      <point x="574.0" y="703.0"/>
      <point x="497.0" y="727.0"/>
      <point x="415" y="727" type="curve" smooth="yes"/>
      <point x="197" y="727"/>
      <point x="20" y="560"/>
      <point x="20" y="356" type="curve" smooth="yes"/>
      <point x="20" y="151"/>
      <point x="197" y="-15"/>
      <point x="415" y="-15" type="curve" smooth="yes"/>
      <point x="497" y="-15"/>
      <point x="574" y="9"/>
      <point x="638" y="49" type="curve"/>
      <point x="702" y="49" type="line"/>
      <point x="712" y="239" type="line"/>
      <point x="664.960014030016" y="139.80698610677294"/>
      <point x="549.0" y="53.0"/>
      <point x="415" y="53" type="curve" smooth="yes"/>
      <point x="241.0" y="53.0"/>
      <point x="100.0" y="197.61363636363637"/>
    </contour>
  </outline>
</glyph>
<glyph name="H" format="1">
  <advance width="805"/>
  <unicode hex="0048"/>
  <outline>
    <contour>
      <point x="755" y="712" type="line"/>
      <point x="557" y="712" type="line"/>
      <point x="618" y="651" type="line"/>
      <point x="618" y="400" type="line"/>
      <point x="187" y="400" type="line"/>
      <point x="187" y="651" type="line"/>
      <point x="248" y="712" type="line"/>
      <point x="50" y="712" type="line"/>
      <point x="111" y="651" type="line"/>
      <point x="111" y="61" type="line"/>
      <point x="50" y="0" type="line"/>
      <point x="248" y="0" type="line"/>
      <point x="187" y="61" type="line"/>
      <point x="187" y="356" type="line"/>
      <point x="618" y="356" type="line"/>
      <point x="618" y="61" type="line"/>
      <point x="557" y="0" type="line"/>
      <point x="755" y="0" type="line"/>
      <point x="694" y="61" type="line"/>
      <point x="694" y="651" type="line"/>
    </contour>
  </outline>
</glyph>
<glyph name="I" format="1">
  <advance width="298"/>
  <unicode hex="0049"/>
  <outline>
    <contour>
      <point x="187" y="651" type="line"/>
      <point x="248" y="712" type="line"/>
      <point x="50" y="712" type="line"/>
      <point x="111" y="651" type="line"/>
      <point x="111" y="61" type="line"/>
      <point x="50" y="0" type="line"/>
      <point x="248" y="0" type="line"/>
      <point x="187" y="61" type="line"/>
    </contour>
  </outline>
</glyph>
<glyph name="J" format="1">
  <advance width="673"/>
  <unicode hex="004A"/>
  <outline>
    <contour>
      <point x="492" y="712" type="line"/>
      <point x="431" y="712" type="line"/>
      <point x="492" y="651" type="line"/>
      <point x="492" y="214" type="line"/>
      <point x="492" y="132"/>
      <point x="413" y="66"/>
      <point x="315" y="66" type="curve" smooth="yes"/>
      <point x="217" y="66"/>
      <point x="137" y="132"/>
      <point x="137" y="214" type="curve" smooth="yes"/>
      <point x="137" y="216"/>
      <point x="137" y="219"/>
      <point x="138" y="221" type="curve" smooth="yes"/>
      <point x="138" y="222"/>
      <point x="138" y="224"/>
      <point x="138" y="225" type="curve"/>
      <point x="138" y="228" type="line"/>
      <point x="102" y="147" type="line"/>
      <point x="51" y="34" type="line"/>
      <point x="134" y="91" type="line"/>
      <point x="134" y="91" type="line"/>
      <point x="177" y="36"/>
      <point x="248" y="1"/>
      <point x="329" y="1" type="curve" smooth="yes"/>
      <point x="386" y="1"/>
      <point x="439" y="19"/>
      <point x="480" y="49" type="curve" smooth="yes"/>
      <point x="484" y="52"/>
      <point x="489" y="55"/>
      <point x="492" y="59" type="curve" smooth="yes"/>
      <point x="535" y="94"/>
      <point x="563" y="144"/>
      <point x="568" y="199" type="curve"/>
      <point x="568" y="651" type="line"/>
      <point x="629" y="712" type="line"/>
      <point x="568" y="712" type="line"/>
    </contour>
  </outline>
</glyph>
<glyph name="M" format="1">
  <advance width="985"/>
  <unicode hex="004D"/>
  <outline>
    <contour>
      <point x="802" y="664" type="line"/>
      <point x="859" y="712" type="line"/>
      <point x="752" y="712" type="line"/>
      <point x="490" y="193" type="line"/>
      <point x="228" y="712" type="line"/>
      <point x="121" y="712" type="line"/>
      <point x="178" y="664" type="line"/>
      <point x="106" y="55" type="line"/>
      <point x="51" y="0" type="line"/>
      <point x="249" y="0" type="line"/>
      <point x="192" y="57" type="line"/>
      <point x="228" y="575" type="line"/>
      <point x="490" y="16" type="line"/>
      <point x="752" y="575" type="line"/>
      <point x="788" y="57" type="line"/>
      <point x="731" y="0" type="line"/>
      <point x="929" y="0" type="line"/>
      <point x="873" y="55" type="line"/>
    </contour>
  </outline>
</glyph>
<glyph name="O" format="1">
  <advance width="848"/>
  <unicode hex="004F"/>
  <outline>
    <contour>
      <point x="424" y="727" type="curve" smooth="yes"/>
      <point x="206" y="727"/>
      <point x="30" y="560"/>
      <point x="30" y="355" type="curve" smooth="yes"/>
      <point x="30" y="150"/>
      <point x="206" y="-15"/>
      <point x="424" y="-15" type="curve" smooth="yes"/>
      <point x="642" y="-15"/>
      <point x="818" y="150"/>
      <point x="818" y="355" type="curve" smooth="yes"/>
      <point x="818" y="560"/>
      <point x="642" y="727"/>
    </contour>
    <contour>
      <point x="424" y="55" type="curve" smooth="yes"/>
      <point x="250" y="55"/>
      <point x="109" y="203"/>
      <point x="109" y="360" type="curve" smooth="yes"/>
      <point x="109" y="522"/>
      <point x="250" y="674"/>
      <point x="424" y="674" type="curve" smooth="yes"/>
      <point x="598" y="674"/>
      <point x="739" y="522"/>
      <point x="739" y="360" type="curve" smooth="yes"/>
      <point x="739" y="203"/>
      <point x="598" y="55"/>
    </contour>
  </outline>
</glyph>
<glyph name="R" format="1">
  <advance width="670.0"/>
  <unicode hex="0052"/>
  <outline>
    <contour>
      <point x="561" y="0" type="curve"/>
      <point x="685" y="0" type="line"/>
      <point x="382" y="281" type="line"/>
      <point x="186" y="456" type="line"/>
      <point x="223" y="421" type="line"/>
      <point x="277.07737042116895" y="380.4419721841233"/>
      <point x="313" y="357"/>
      <point x="384" y="357" type="curve" smooth="yes"/>
      <point x="471" y="357"/>
      <point x="565.0" y="432.0486486486486"/>
      <point x="565" y="535" type="curve" smooth="yes"/>
      <point x="565.0" y="646.0"/>
      <point x="470.8529411764706" y="727.0"/>
      <point x="371" y="727" type="curve" smooth="yes"/>
      <point x="285.44943820224717" y="727.0"/>
      <point x="204.07452172120614" y="670.290989578043"/>
      <point x="183" y="588" type="curve"/>
      <point x="187" y="598" type="line"/>
      <point x="187" y="671" type="line"/>
      <point x="228" y="712" type="line"/>
      <point x="50" y="712" type="line"/>
      <point x="112" y="651" type="line"/>
      <point x="112" y="61" type="line"/>
      <point x="50" y="0" type="line"/>
      <point x="249" y="0" type="line"/>
      <point x="187" y="61" type="line"/>
      <point x="187" y="461" type="line"/>
      <point x="180" y="397" type="line"/>
      <point x="180" y="397"/>
      <point x="561" y="0"/>
    </contour>
    <contour>
      <point x="177" y="535" type="curve" smooth="yes"/>
      <point x="177.0" y="615.0"/>
      <point x="250.4230769230769" y="679.0"/>
      <point x="343" y="679" type="curve" smooth="yes"/>
      <point x="421.47368421052636" y="679.0"/>
      <point x="485.0" y="620.0"/>
      <point x="485" y="535" type="curve" smooth="yes"/>
      <point x="485.0" y="450.0"/>
      <point x="421.4155844155844" y="391.0"/>
      <point x="341" y="391" type="curve" smooth="yes"/>
      <point x="250.4805194805195" y="391.0"/>
      <point x="177.0" y="455.0"/>
    </contour>
  </outline>
</glyph>
<glyph name="U" format="1">
  <advance width="696"/>
  <unicode hex="0055"/>
  <outline>
    <contour>
      <point x="653" y="712" type="line"/>
      <point x="454" y="712" type="line"/>
      <point x="516" y="651" type="line"/>
      <point x="516" y="205" type="line" smooth="yes"/>
      <point x="516" y="116"/>
      <point x="442" y="49"/>
      <point x="352" y="49" type="curve" smooth="yes"/>
      <point x="261" y="49"/>
      <point x="188" y="116"/>
      <point x="188" y="205" type="curve" smooth="yes"/>
      <point x="188" y="651" type="line"/>
      <point x="249" y="712" type="line"/>
      <point x="51" y="712" type="line"/>
      <point x="112" y="651" type="line"/>
      <point x="112" y="205" type="line" smooth="yes"/>
      <point x="112" y="81"/>
      <point x="219" y="-15"/>
      <point x="352" y="-15" type="curve" smooth="yes"/>
      <point x="484" y="-15"/>
      <point x="592" y="81"/>
      <point x="592" y="205" type="curve" smooth="yes"/>
      <point x="592" y="651" type="line"/>
    </contour>
  </outline>
</glyph>
<glyph name="a" format="1">
  <advance width="504"/>
  <unicode hex="0061"/>
  <outline>
    <contour>
      <point x="50" y="122" type="curve" smooth="yes"/>
      <point x="50" y="40"/>
      <point x="111" y="-15"/>
      <point x="186" y="-15" type="curve" smooth="yes"/>
      <point x="257" y="-15"/>
      <point x="316" y="29"/>
      <point x="357" y="101" type="curve"/>
      <point x="316" y="57"/>
      <point x="275" y="28"/>
      <point x="235" y="28" type="curve" smooth="yes"/>
      <point x="170" y="28"/>
      <point x="122.0" y="75.08333333333333"/>
      <point x="122" y="141" type="curve" smooth="yes"/>
      <point x="122.0" y="189.0"/>
      <point x="156.0" y="234.0"/>
      <point x="223" y="234" type="curve" smooth="yes"/>
      <point x="260.0" y="234.0"/>
      <point x="299" y="230"/>
      <point x="354" y="214" type="curve"/>
      <point x="305" y="238"/>
      <point x="257.0" y="255.0"/>
      <point x="203" y="255" type="curve" smooth="yes"/>
      <point x="123.99999999999999" y="255.0"/>
      <point x="50.0" y="200.9349593495935"/>
    </contour>
    <contour>
      <point x="354" y="324" type="curve" smooth="yes"/>
      <point x="354" y="72" type="line" smooth="yes"/>
      <point x="354" y="29"/>
      <point x="386" y="0"/>
      <point x="425" y="0" type="curve" smooth="yes"/>
      <point x="457" y="0"/>
      <point x="495" y="29"/>
      <point x="514" y="49" type="curve"/>
      <point x="498" y="41"/>
      <point x="481" y="38"/>
      <point x="464" y="38" type="curve" smooth="yes"/>
      <point x="438" y="38"/>
      <point x="422" y="53"/>
      <point x="422" y="85" type="curve" smooth="yes"/>
      <point x="422" y="330" type="line" smooth="yes"/>
      <point x="422" y="423"/>
      <point x="361" y="465"/>
      <point x="275" y="465" type="curve" smooth="yes"/>
      <point x="179" y="465"/>
      <point x="95" y="402"/>
      <point x="95" y="360" type="curve" smooth="yes"/>
      <point x="95" y="341"/>
      <point x="112" y="331"/>
      <point x="129" y="331" type="curve" smooth="yes"/>
      <point x="146" y="331"/>
      <point x="163" y="346"/>
      <point x="166" y="361" type="curve" smooth="yes"/>
      <point x="173" y="395"/>
      <point x="198" y="438"/>
      <point x="259" y="438" type="curve" smooth="yes"/>
      <point x="316" y="438"/>
      <point x="354" y="405"/>
    </contour>
  </outline>
</glyph>
<glyph name="b" format="1">
  <advance width="593"/>
  <unicode hex="0062"/>
  <outline>
    <contour>
      <point x="156" y="711" type="line"/>
      <point x="211" y="762" type="line"/>
      <point x="32" y="762" type="line"/>
      <point x="88" y="707" type="line"/>
      <point x="88" y="55" type="line"/>
      <point x="32" y="0" type="line"/>
      <point x="193" y="0" type="line"/>
      <point x="156" y="37" type="line"/>
    </contour>
    <contour>
      <point x="561" y="230" type="curve" smooth="yes"/>
      <point x="561.0" y="360.55555555555554"/>
      <point x="464.0" y="465.0"/>
      <point x="343" y="465" type="curve" smooth="yes"/>
      <point x="270" y="465"/>
      <point x="206" y="434"/>
      <point x="167" y="387" type="curve"/>
      <point x="201" y="415"/>
      <point x="247" y="433"/>
      <point x="298" y="433" type="curve" smooth="yes"/>
      <point x="402.0" y="433.0"/>
      <point x="482.0" y="341.56038647342996"/>
      <point x="482" y="225" type="curve" smooth="yes"/>
      <point x="482.0" y="109.44444444444444"/>
      <point x="402.0" y="17.0"/>
      <point x="298" y="17" type="curve" smooth="yes"/>
      <point x="247" y="17"/>
      <point x="201" y="35"/>
      <point x="167" y="63" type="curve"/>
      <point x="206" y="16"/>
      <point x="270" y="-15"/>
      <point x="343" y="-15" type="curve" smooth="yes"/>
      <point x="464.0" y="-15.0"/>
      <point x="561.0" y="85.40983606557378"/>
    </contour>
  </outline>
</glyph>
<glyph name="c" format="1">
  <advance width="506"/>
  <unicode hex="0063"/>
  <outline>
    <contour>
      <point x="99" y="229" type="curve"/>
      <point x="99" y="329"/>
      <point x="185" y="401"/>
      <point x="291" y="401" type="curve" smooth="yes"/>
      <point x="368" y="401"/>
      <point x="441" y="356"/>
      <point x="479" y="296" type="curve"/>
      <point x="479" y="415" type="line"/>
      <point x="442" y="415" type="line"/>
      <point x="399" y="448"/>
      <point x="347" y="459"/>
      <point x="291" y="459" type="curve" smooth="yes"/>
      <point x="149" y="459"/>
      <point x="32" y="370"/>
      <point x="32" y="226" type="curve"/>
      <point x="32" y="87"/>
      <point x="149" y="-7"/>
      <point x="291" y="-7" type="curve" smooth="yes"/>
      <point x="347" y="-7"/>
      <point x="399" y="9"/>
      <point x="442" y="37" type="curve"/>
      <point x="479" y="37" type="line"/>
      <point x="479" y="156" type="line"/>
      <point x="441" y="101"/>
      <point x="368" y="51"/>
      <point x="291" y="51" type="curve" smooth="yes"/>
      <point x="185" y="51"/>
      <point x="99" y="128"/>
    </contour>
  </outline>
</glyph>
<glyph name="g" format="1">
  <advance width="563"/>
  <unicode hex="0067"/>
  <outline>
    <contour>
      <point x="264" y="465" type="curve" smooth="yes"/>
      <point x="164.77173913043478" y="465.0"/>
      <point x="85.0" y="392.0"/>
      <point x="85" y="300" type="curve" smooth="yes"/>
      <point x="85.0" y="206.0"/>
      <point x="164.77173913043478" y="134.0"/>
      <point x="264" y="134" type="curve" smooth="yes"/>
      <point x="362.27027027027026" y="134.0"/>
      <point x="444.0" y="206.0"/>
      <point x="444" y="300" type="curve" smooth="yes"/>
      <point x="444.0" y="392.0"/>
      <point x="362.27027027027026" y="465.0"/>
    </contour>
    <contour>
      <point x="264" y="191" type="curve" smooth="yes"/>
      <point x="199.79166666666669" y="191.0"/>
      <point x="149.0" y="243.0"/>
      <point x="149" y="304" type="curve" smooth="yes"/>
      <point x="149.0" y="365.0"/>
      <point x="199.79166666666669" y="418.0"/>
      <point x="264" y="418" type="curve" smooth="yes"/>
      <point x="328.2083333333333" y="418.0"/>
      <point x="379.0" y="365.0"/>
      <point x="379" y="304" type="curve" smooth="yes"/>
      <point x="379.0" y="243.0"/>
      <point x="328.2083333333333" y="191.0"/>
    </contour>
    <contour>
      <point x="537" y="362" type="curve"/>
      <point x="537" y="468" type="line"/>
      <point x="493.6975219474901" y="456.944048156806"/>
      <point x="454.02514519229607" y="409.2308190526854"/>
      <point x="428" y="362" type="curve" smooth="yes"/>
      <point x="451.90422584094483" y="373.9521129204725"/>
      <point x="475" y="384"/>
      <point x="490" y="384" type="curve" smooth="yes"/>
      <point x="504" y="384"/>
      <point x="523" y="375"/>
    </contour>
    <contour>
      <point x="106.0" y="114.0" type="curve" smooth="yes"/>
      <point x="106.0" y="141.67796610169492"/>
      <point x="122" y="168"/>
      <point x="157" y="185" type="curve"/>
      <point x="108" y="173"/>
      <point x="65.0" y="137.0705882352941"/>
      <point x="65.0" y="88.0" type="curve" smooth="yes"/>
      <point x="65.0" y="42.0"/>
      <point x="100.0" y="0.0"/>
      <point x="211.0" y="0.0" type="curve" smooth="yes"/>
      <point x="381.0" y="0.0" type="line" smooth="yes"/>
      <point x="454.01075268817203" y="0.0"/>
      <point x="478" y="-31"/>
      <point x="478" y="-82" type="curve" smooth="yes"/>
      <point x="478" y="-145"/>
      <point x="435" y="-177"/>
      <point x="353" y="-177" type="curve" smooth="yes"/>
      <point x="186" y="-177"/>
      <point x="75.0" y="-112.87671232876711"/>
      <point x="75" y="-26" type="curve" smooth="yes"/>
      <point x="75.0" y="-3.741935483870968"/>
      <point x="78" y="20"/>
      <point x="86" y="35" type="curve"/>
      <point x="62" y="6"/>
      <point x="40.0" y="-35.264462809917354"/>
      <point x="40" y="-74" type="curve" smooth="yes"/>
      <point x="40.0" y="-180.0"/>
      <point x="137" y="-230"/>
      <point x="284" y="-230" type="curve" smooth="yes"/>
      <point x="415.4131274131274" y="-230.0"/>
      <point x="538" y="-144"/>
      <point x="538" y="-42" type="curve" smooth="yes"/>
      <point x="538.0" y="19.59803921568627"/>
      <point x="482.0" y="61"/>
      <point x="379" y="61" type="curve" smooth="yes"/>
      <point x="209" y="61" type="line" smooth="yes"/>
      <point x="120.0" y="61"/>
      <point x="106.0" y="88.48148148148148"/>
    </contour>
  </outline>
</glyph>
<glyph name="h" format="1">
  <advance width="535"/>
  <unicode hex="0068"/>
  <outline>
    <contour>
      <point x="156" y="619" type="line"/>
      <point x="212" y="674" type="line"/>
      <point x="32" y="674" type="line"/>
      <point x="88" y="619" type="line"/>
      <point x="88" y="55" type="line"/>
      <point x="32" y="0" type="line"/>
      <point x="211" y="0" type="line"/>
      <point x="156" y="55" type="line"/>
    </contour>
    <contour>
      <point x="385" y="258" type="curve" smooth="yes"/>
      <point x="385" y="55" type="line"/>
      <point x="329" y="0" type="line"/>
      <point x="508" y="0" type="line"/>
      <point x="453" y="55" type="line"/>
      <point x="453" y="264" type="line" smooth="yes"/>
      <point x="453" y="396"/>
      <point x="408" y="455"/>
      <point x="325" y="455" type="curve" smooth="yes"/>
      <point x="255" y="455"/>
      <point x="209" y="419"/>
      <point x="176" y="360" type="curve"/>
      <point x="214" y="401"/>
      <point x="245" y="424"/>
      <point x="289" y="424" type="curve" smooth="yes"/>
      <point x="353" y="424"/>
      <point x="385" y="375"/>
    </contour>
  </outline>
</glyph>
<glyph name="i" format="1">
  <advance width="243"/>
  <unicode hex="0069"/>
  <outline>
    <contour>
      <point x="156" y="394" type="line"/>
      <point x="211" y="449" type="line"/>
      <point x="32" y="449" type="line"/>
      <point x="87" y="394" type="line"/>
      <point x="87" y="55" type="line"/>
      <point x="32" y="0" type="line"/>
      <point x="211" y="0" type="line"/>
      <point x="156" y="55" type="line"/>
    </contour>
    <contour>
      <point x="190" y="627" type="line"/>
      <point x="122" y="696" type="line"/>
      <point x="53" y="627" type="line"/>
      <point x="122" y="559" type="line"/>
    </contour>
  </outline>
</glyph>
<glyph name="k" format="1">
  <advance width="509"/>
  <unicode hex="006B"/>
  <outline>
    <contour>
      <point x="174" y="250" type="line"/>
      <point x="410" y="-1" type="line"/>
      <point x="522" y="-1" type="line"/>
      <point x="246" y="256" type="line"/>
      <point x="311" y="345" type="line"/>
      <point x="428" y="449" type="line"/>
      <point x="305" y="449" type="line"/>
    </contour>
    <contour>
      <point x="169" y="586" type="line"/>
      <point x="224" y="641" type="line"/>
      <point x="46" y="641" type="line"/>
      <point x="101" y="586" type="line"/>
      <point x="101" y="54" type="line"/>
      <point x="46" y="-1" type="line"/>
      <point x="224" y="-1" type="line"/>
      <point x="169" y="54" type="line"/>
    </contour>
  </outline>
</glyph>
<glyph name="l" format="1">
  <advance width="232"/>
  <unicode hex="006C"/>
  <outline>
    <contour>
      <point x="150" y="619" type="line"/>
      <point x="205" y="674" type="line"/>
      <point x="27" y="674" type="line"/>
      <point x="82" y="619" type="line"/>
      <point x="82" y="55" type="line"/>
      <point x="27" y="0" type="line"/>
      <point x="205" y="0" type="line"/>
      <point x="150" y="55" type="line"/>
    </contour>
  </outline>
</glyph>
<glyph name="m" format="1">
  <advance width="740"/>
  <unicode hex="006D"/>
  <outline>
    <contour>
      <point x="156" y="408" type="line"/>
      <point x="193" y="450" type="line"/>
      <point x="32" y="450" type="line"/>
      <point x="88" y="395" type="line"/>
      <point x="88" y="55" type="line"/>
      <point x="32" y="0" type="line"/>
      <point x="211" y="0" type="line"/>
      <point x="156" y="55" type="line"/>
    </contour>
    <contour>
      <point x="340" y="267" type="curve" smooth="yes"/>
      <point x="340" y="55" type="line"/>
      <point x="284" y="0" type="line"/>
      <point x="463" y="0" type="line"/>
      <point x="408" y="55" type="line"/>
      <point x="408" y="273" type="line" smooth="yes"/>
      <point x="408" y="404"/>
      <point x="369" y="464"/>
      <point x="298" y="464" type="curve" smooth="yes"/>
      <point x="236" y="464"/>
      <point x="195" y="430"/>
      <point x="167" y="369" type="curve"/>
      <point x="199" y="410"/>
      <point x="225" y="429"/>
      <point x="262" y="429" type="curve" smooth="yes"/>
      <point x="314" y="429"/>
      <point x="340" y="381"/>
    </contour>
    <contour>
      <point x="585" y="55" type="line"/>
      <point x="529" y="0" type="line"/>
      <point x="707" y="0" type="line"/>
      <point x="653" y="55" type="line"/>
      <point x="653" y="273" type="line" smooth="yes"/>
      <point x="653" y="404"/>
      <point x="614" y="464"/>
      <point x="543" y="464" type="curve" smooth="yes"/>
      <point x="481" y="464"/>
      <point x="440" y="430"/>
      <point x="411" y="369" type="curve"/>
      <point x="444" y="410"/>
      <point x="470" y="429"/>
      <point x="507" y="429" type="curve" smooth="yes"/>
      <point x="559" y="429"/>
      <point x="585" y="381"/>
      <point x="585" y="267" type="curve" smooth="yes"/>
    </contour>
  </outline>
</glyph>
<glyph name="n" format="1">
  <advance width="556"/>
  <unicode hex="006E"/>
  <outline>
    <contour>
      <point x="146" y="466" type="line"/>
      <point x="32" y="442" type="line"/>
      <point x="88" y="384" type="line"/>
      <point x="88" y="55" type="line"/>
      <point x="32" y="0" type="line"/>
      <point x="211" y="0" type="line"/>
      <point x="156" y="55" type="line"/>
      <point x="156" y="381" type="line"/>
    </contour>
    <contour>
      <point x="406" y="299" type="curve" smooth="yes"/>
      <point x="406" y="55" type="line"/>
      <point x="350" y="0" type="line"/>
      <point x="529" y="0" type="line"/>
      <point x="474" y="55" type="line"/>
      <point x="474" y="305" type="line" smooth="yes"/>
      <point x="474" y="415.0"/>
      <point x="423" y="465"/>
      <point x="341" y="465" type="curve" smooth="yes"/>
      <point x="262.0" y="465.0"/>
      <point x="198" y="424"/>
      <point x="156" y="381" type="curve"/>
      <point x="201" y="409"/>
      <point x="242.2837311183907" y="424.0786044813601"/>
      <point x="307" y="423" type="curve" smooth="yes"/>
      <point x="370" y="422"/>
      <point x="406" y="386.0"/>
    </contour>
  </outline>
</glyph>
<glyph name="o" format="1">
  <advance width="534"/>
  <unicode hex="006F"/>
  <outline>
    <contour>
      <point x="267" y="465" type="curve" smooth="yes"/>
      <point x="133" y="465"/>
      <point x="25" y="357"/>
      <point x="25" y="225" type="curve" smooth="yes"/>
      <point x="25" y="93"/>
      <point x="133" y="-15"/>
      <point x="267" y="-15" type="curve" smooth="yes"/>
      <point x="400" y="-15"/>
      <point x="509" y="93"/>
      <point x="509" y="225" type="curve" smooth="yes"/>
      <point x="509" y="357"/>
      <point x="400" y="465"/>
    </contour>
    <contour>
      <point x="267" y="45" type="curve" smooth="yes"/>
      <point x="171" y="45"/>
      <point x="94" y="127"/>
      <point x="94" y="230" type="curve" smooth="yes"/>
      <point x="94" y="333"/>
      <point x="171" y="417"/>
      <point x="267" y="417" type="curve" smooth="yes"/>
      <point x="362" y="417"/>
      <point x="439" y="333"/>
      <point x="439" y="230" type="curve" smooth="yes"/>
      <point x="439" y="127"/>
      <point x="362" y="45"/>
    </contour>
  </outline>
</glyph>
<glyph name="s" format="1">
  <advance width="429"/>
  <unicode hex="0073"/>
  <outline>
    <contour>
      <point x="394.0" y="198.56081081081078"/>
      <point x="332" y="245"/>
      <point x="221" y="274" type="curve" smooth="yes"/>
      <point x="140.3703808243991" y="294.7021995180597"/>
      <point x="106.0" y="312.0"/>
      <point x="106" y="351" type="curve" smooth="yes"/>
      <point x="106.0" y="390.0"/>
      <point x="135.1681415929203" y="408.0"/>
      <point x="209" y="408" type="curve" smooth="yes"/>
      <point x="265.0" y="408.0"/>
      <point x="322.06882343243785" y="389.4775766994467"/>
      <point x="346" y="333" type="curve"/>
      <point x="357" y="447" type="line"/>
      <point x="294" y="447" type="line"/>
      <point x="324" y="423" type="line"/>
      <point x="310" y="451"/>
      <point x="261" y="465"/>
      <point x="213" y="465" type="curve" smooth="yes"/>
      <point x="138" y="465"/>
      <point x="68" y="416"/>
      <point x="68" y="339" type="curve" smooth="yes"/>
      <point x="68" y="265"/>
      <point x="122" y="228"/>
      <point x="224" y="201" type="curve" smooth="yes"/>
      <point x="297.48281141649585" y="182.62929714587602"/>
      <point x="351.0" y="157.0"/>
      <point x="351" y="110" type="curve" smooth="yes"/>
      <point x="351.0" y="67.0"/>
      <point x="320.578125" y="45.0"/>
      <point x="233" y="45" type="curve" smooth="yes"/>
      <point x="133.0" y="45.0"/>
      <point x="74.63627108194983" y="96.28262302680854"/>
      <point x="56" y="162" type="curve"/>
      <point x="28" y="11" type="line"/>
      <point x="83" y="45" type="line"/>
      <point x="58" y="56" type="line"/>
      <point x="94.89128425255882" y="10.67642220399916"/>
      <point x="148.45751633986927" y="-15.0"/>
      <point x="231" y="-15" type="curve" smooth="yes"/>
      <point x="325.6083916083916" y="-15.0"/>
      <point x="394.0" y="36.0"/>
      <point x="394" y="120" type="curve" smooth="yes"/>
    </contour>
  </outline>
</glyph>
<glyph name="u" format="1">
  <advance width="509"/>
  <unicode hex="0075"/>
  <outline>
    <contour>
      <point x="353" y="42" type="line"/>
      <point x="307" y="0" type="line"/>
      <point x="477" y="0" type="line"/>
      <point x="421" y="55" type="line"/>
      <point x="421" y="450" type="line"/>
      <point x="278" y="450" type="line"/>
      <point x="353" y="395" type="line"/>
    </contour>
    <contour>
      <point x="143" y="163" type="curve" smooth="yes"/>
      <point x="143" y="450" type="line"/>
      <point x="10" y="450" type="line"/>
      <point x="75" y="395" type="line"/>
      <point x="75" y="157" type="line" smooth="yes"/>
      <point x="75" y="38.75"/>
      <point x="117.73728813559322" y="-15.0"/>
      <point x="198" y="-15" type="curve" smooth="yes"/>
      <point x="265.6510067114094" y="-15.0"/>
      <point x="310.24089511568707" y="22.444150369548026"/>
      <point x="342" y="81" type="curve"/>
      <point x="304.76751049474154" y="40.828103428536906"/>
      <point x="276.05309734513276" y="17.0"/>
      <point x="234" y="17" type="curve" smooth="yes"/>
      <point x="173.68604651162792" y="17.0"/>
      <point x="143" y="60.096385542168676"/>
    </contour>
  </outline>
</glyph>
<glyph name="v" format="1">
  <advance width="520"/>
  <unicode hex="0076"/>
  <outline>
    <contour>
      <point x="347" y="450" type="line"/>
      <point x="385" y="410" type="line"/>
      <point x="283" y="180" type="line"/>
      <point x="243" y="82" type="line"/>
      <point x="277" y="82" type="line"/>
      <point x="238" y="180" type="line"/>
      <point x="135" y="410" type="line"/>
      <point x="174" y="450" type="line"/>
      <point x="-5" y="450" type="line"/>
      <point x="89" y="356" type="line"/>
      <point x="260" y="-14" type="line"/>
      <point x="431" y="356" type="line"/>
      <point x="525" y="450" type="line"/>
    </contour>
  </outline>
</glyph>
<glyph name="Agrave" format="1">
  <advance width="816"/>
  <unicode hex="00C0"/>
  <outline>
    <contour>
      <point x="795" y="0" type="line"/>
      <point x="729" y="67" type="line"/>
      <point x="729" y="67" type="line"/>
      <point x="409" y="747" type="line"/>
      <point x="88" y="67" type="line"/>
      <point x="88" y="67" type="line"/>
      <point x="22" y="0" type="line"/>
      <point x="220" y="0" type="line"/>
      <point x="176" y="44" type="line"/>
      <point x="301" y="356" type="line"/>
      <point x="516" y="356" type="line"/>
      <point x="641" y="44" type="line"/>
      <point x="597" y="0" type="line"/>
    </contour>
    <contour>
      <point x="319" y="399" type="line"/>
      <point x="409" y="624" type="line"/>
      <point x="499" y="399" type="line"/>
    </contour>
    <contour>
      <point x="453" y="803" type="move"/>
    </contour>
    <contour>
      <point x="477" y="866" type="line"/>
      <point x="477" y="866"/>
      <point x="453" y="838"/>
      <point x="453" y="803" type="curve" smooth="yes"/>
      <point x="453" y="768"/>
      <point x="507" y="732"/>
      <point x="507" y="732" type="curve"/>
      <point x="507" y="732"/>
      <point x="373" y="771"/>
      <point x="329" y="866" type="curve"/>
    </contour>
  </outline>
</glyph>
<glyph name="Acircumflex" format="1">
  <advance width="870"/>
  <unicode hex="00C2"/>
  <outline>
    <contour>
      <point x="825" y="0" type="line"/>
      <point x="759" y="67" type="line"/>
      <point x="759" y="67" type="line"/>
      <point x="439" y="747" type="line"/>
      <point x="118" y="67" type="line"/>
      <point x="118" y="67" type="line"/>
      <point x="52" y="0" type="line"/>
      <point x="250" y="0" type="line"/>
      <point x="206" y="44" type="line"/>
      <point x="331" y="356" type="line"/>
      <point x="546" y="356" type="line"/>
      <point x="671" y="44" type="line"/>
      <point x="627" y="0" type="line"/>
    </contour>
    <contour>
      <point x="349" y="399" type="line"/>
      <point x="439" y="624" type="line"/>
      <point x="529" y="399" type="line"/>
    </contour>
    <contour>
      <point x="439" y="899" type="line"/>
      <point x="284" y="744" type="line"/>
      <point x="357" y="744" type="line"/>
      <point x="439" y="844" type="line"/>
      <point x="522" y="744" type="line"/>
      <point x="594" y="744" type="line"/>
    </contour>
  </outline>
</glyph>
<glyph name="Eacute" format="1">
  <advance width="630"/>
  <unicode hex="00C9"/>
  <outline>
    <contour>
      <point x="269" y="866" type="line"/>
      <point x="269" y="866"/>
      <point x="293" y="838"/>
      <point x="293" y="803" type="curve" smooth="yes"/>
      <point x="293" y="768"/>
      <point x="239" y="732"/>
      <point x="239" y="732" type="curve"/>
      <point x="239" y="732"/>
      <point x="373" y="771"/>
      <point x="417" y="866" type="curve"/>
    </contour>
    <component base="E" yOffset="-1"/>
  </outline>
</glyph>
<glyph name="Idieresis" format="1">
  <advance width="305"/>
  <unicode hex="00CF"/>
  <outline>
    <contour>
      <point x="301" y="821" type="line"/>
      <point x="240" y="882" type="line"/>
      <point x="240" y="882" type="line"/>
      <point x="179" y="821" type="line"/>
      <point x="179" y="821" type="line"/>
      <point x="240" y="760" type="line"/>
      <point x="240" y="760" type="line"/>
    </contour>
    <contour>
      <point x="121" y="821" type="line"/>
      <point x="60" y="882" type="line"/>
      <point x="60" y="882" type="line"/>
      <point x="-1" y="821" type="line"/>
      <point x="-1" y="821" type="line"/>
      <point x="60" y="760" type="line"/>
      <point x="60" y="760" type="line"/>
    </contour>
    <component base="I" yOffset="-1"/>
  </outline>
</glyph>
<glyph name="Ntilde" format="1">
  <advance width="749"/>
  <unicode hex="00D1"/>
  <outline>
    <contour>
      <point x="705" y="712" type="line"/>
      <point x="643" y="712" type="line"/>
      <point x="568" y="712" type="line"/>
      <point x="506" y="712" type="line"/>
      <point x="568" y="650" type="line"/>
      <point x="568" y="122" type="line"/>
      <point x="109" y="712" type="line"/>
      <point x="-3" y="712" type="line"/>
      <point x="92" y="614" type="line"/>
      <point x="92" y="59" type="line"/>
      <point x="31" y="-3" type="line"/>
      <point x="92" y="-3" type="line"/>
      <point x="168" y="-3" type="line"/>
      <point x="230" y="-3" type="line"/>
      <point x="168" y="59" type="line"/>
      <point x="168" y="527" type="line"/>
      <point x="590" y="-3" type="line"/>
      <point x="705" y="-3" type="line"/>
      <point x="643" y="59" type="line"/>
      <point x="643" y="650" type="line"/>
    </contour>
  </outline>
</glyph>
<glyph name="Udieresis" format="1">
  <advance width="696"/>
  <unicode hex="00DC"/>
  <outline>
    <contour>
      <point x="500" y="821" type="line"/>
      <point x="439" y="882" type="line"/>
      <point x="439" y="882" type="line"/>
      <point x="378" y="821" type="line"/>
      <point x="378" y="821" type="line"/>
      <point x="439" y="760" type="line"/>
      <point x="439" y="760" type="line"/>
    </contour>
    <contour>
      <point x="320" y="821" type="line"/>
      <point x="259" y="882" type="line"/>
      <point x="259" y="882" type="line"/>
      <point x="198" y="821" type="line"/>
      <point x="198" y="821" type="line"/>
      <point x="259" y="760" type="line"/>
      <point x="259" y="760" type="line"/>
    </contour>
    <contour>
      <point x="652" y="712" type="line"/>
      <point x="591" y="712" type="line"/>
      <point x="591" y="712" type="line"/>
      <point x="516" y="712" type="line"/>
      <point x="516" y="712" type="line"/>
      <point x="454" y="712" type="line"/>
      <point x="516" y="651" type="line"/>
      <point x="516" y="371" type="line"/>
      <point x="516" y="214" type="line"/>
      <point x="516" y="131"/>
      <point x="442" y="64"/>
      <point x="352" y="64" type="curve" smooth="yes"/>
      <point x="261" y="64"/>
      <point x="188" y="131"/>
      <point x="188" y="214" type="curve"/>
      <point x="188" y="371" type="line"/>
      <point x="188" y="651" type="line"/>
      <point x="249" y="712" type="line"/>
      <point x="188" y="712" type="line"/>
      <point x="188" y="712" type="line"/>
      <point x="112" y="712" type="line"/>
      <point x="112" y="712" type="line"/>
      <point x="51" y="712" type="line"/>
      <point x="112" y="651" type="line"/>
      <point x="112" y="225" type="line"/>
      <point x="112" y="221"/>
      <point x="112" y="218"/>
      <point x="112" y="214" type="curve" smooth="yes"/>
      <point x="112" y="96"/>
      <point x="219" y="0"/>
      <point x="352" y="0" type="curve" smooth="yes"/>
      <point x="484" y="0"/>
      <point x="592" y="96"/>
      <point x="592" y="214" type="curve" smooth="yes"/>
      <point x="592" y="219"/>
      <point x="591" y="224"/>
      <point x="591" y="229" type="curve"/>
      <point x="591" y="651" type="line"/>
    </contour>
  </outline>
</glyph>
<glyph name="quoteleft" format="1">
  <advance width="215"/>
  <unicode hex="2018"/>
  <outline>
    <contour>
      <point x="177" y="582" type="line" smooth="yes"/>
      <point x="177" y="582"/>
      <point x="153" y="620"/>
      <point x="153" y="655" type="curve" smooth="yes"/>
      <point x="153" y="690"/>
      <point x="177" y="746"/>
      <point x="177" y="746" type="curve" smooth="yes"/>
      <point x="177" y="746"/>
      <point x="73" y="677"/>
      <point x="29" y="582" type="curve"/>
    </contour>
  </outline>
</glyph>
<glyph name="quotedblright" format="1">
  <advance width="355"/>
  <unicode hex="201D"/>
  <outline>
    <contour>
      <point x="189" y="746" type="line" smooth="yes"/>
      <point x="189" y="746"/>
      <point x="213" y="708"/>
      <point x="213" y="673" type="curve" smooth="yes"/>
      <point x="213" y="638"/>
      <point x="189" y="582"/>
      <point x="189" y="582" type="curve" smooth="yes"/>
      <point x="189" y="582"/>
      <point x="293" y="651"/>
      <point x="337" y="746" type="curve"/>
    </contour>
    <contour>
      <point x="9" y="746" type="line"/>
      <point x="9" y="746"/>
      <point x="33" y="708"/>
      <point x="33" y="673" type="curve" smooth="yes"/>
      <point x="33" y="638"/>
      <point x="9" y="582"/>
      <point x="9" y="582" type="curve"/>
      <point x="9" y="582"/>
      <point x="113" y="651"/>
      <point x="157" y="746" type="curve"/>
    </contour>
  </outline>
</glyph>
<glyph name="d.001" format="1">
  <advance width="833"/>
  <outline>
    <contour>
      <point x="409" y="718" type="curve" smooth="yes"/>
      <point x="327" y="718"/>
      <point x="251" y="695"/>
      <point x="188" y="656" type="curve"/>
      <point x="188" y="671" type="line"/>
      <point x="229" y="712" type="line"/>
      <point x="188" y="712" type="line"/>
      <point x="167" y="712" type="line"/>
      <point x="112" y="712" type="line"/>
      <point x="51" y="712" type="line"/>
      <point x="112" y="651" type="line"/>
      <point x="112" y="61" type="line"/>
      <point x="51" y="0" type="line"/>
      <point x="112" y="0" type="line"/>
      <point x="167" y="0" type="line"/>
      <point x="188" y="0" type="line"/>
      <point x="229" y="0" type="line"/>
      <point x="188" y="41" type="line"/>
      <point x="188" y="54" type="line"/>
      <point x="251" y="15"/>
      <point x="327" y="-8"/>
      <point x="409" y="-8" type="curve" smooth="yes"/>
      <point x="627" y="-8"/>
      <point x="803" y="154"/>
      <point x="803" y="355" type="curve" smooth="yes"/>
      <point x="803" y="555"/>
      <point x="627" y="718"/>
    </contour>
    <contour>
      <point x="731" y="360" type="curve" smooth="yes"/>
      <point x="731" y="360"/>
      <point x="731" y="360"/>
      <point x="731" y="360" type="curve" smooth="yes"/>
      <point x="731" y="360"/>
      <point x="731" y="360"/>
      <point x="731" y="360" type="curve" smooth="yes"/>
      <point x="731" y="188"/>
      <point x="573" y="48"/>
      <point x="378" y="48" type="curve" smooth="yes"/>
      <point x="308" y="48"/>
      <point x="243" y="66"/>
      <point x="188" y="97" type="curve"/>
      <point x="188" y="623" type="line"/>
      <point x="243" y="654"/>
      <point x="308" y="672"/>
      <point x="378" y="672" type="curve" smooth="yes"/>
      <point x="570" y="672"/>
      <point x="727" y="536"/>
      <point x="731" y="367" type="curve" smooth="yes"/>
      <point x="731" y="365"/>
      <point x="731" y="362"/>
    </contour>
  </outline>
</glyph>
